<svg width="38" height="35" viewBox="0 0 38 35" fill="none" xmlns="http://www.w3.org/2000/svg">
<g id="logo">
<g id="Oval 1">
<mask id="path-1-inside-1" fill="white">
<path fill-rule="evenodd" clip-rule="evenodd" d="M23.8649 8.06752C20.2703 6.34055 15.9607 6.18083 12.0657 8.00031C5.16291 11.2248 2.17645 19.4446 5.39529 26.3596C8.61413 33.2747 16.8193 36.2664 23.7222 33.0419C30.502 29.8748 33.5038 21.8889 30.5588 15.0534"/>
</mask>
<path d="M12.0657 8.00031L12.9122 9.81235L12.0657 8.00031ZM23.7222 33.0419L24.5686 34.8539L23.7222 33.0419ZM24.731 6.26478C20.6191 4.28925 15.6805 4.10425 11.2193 6.18826L12.9122 9.81235C16.2409 8.25741 19.9216 8.39185 22.9988 9.87025L24.731 6.26478ZM11.2193 6.18826C3.3147 9.88075 -0.101516 19.2901 3.5821 27.2036L7.20848 25.5156C4.45443 19.5991 7.01112 12.5689 12.9122 9.81235L11.2193 6.18826ZM3.5821 27.2036C7.26661 35.1191 16.6621 38.5473 24.5686 34.8539L22.8757 31.2298C16.9765 33.9855 9.96164 31.4303 7.20848 25.5156L3.5821 27.2036ZM24.5686 34.8539C32.3327 31.2271 35.7662 22.0856 32.3955 14.262L28.722 15.8447C31.2413 21.6923 28.6713 28.5225 22.8757 31.2298L24.5686 34.8539Z" fill="white" mask="url(#path-1-inside-1)"/>
</g>
<path id="Path 1" d="M6.5 26C6.5 26 7.29698 19.2351 15.5662 15.3723C23.8355 11.5094 30.0705 15.4768 30.0705 15.4768" stroke="white" stroke-width="2"/>
<path id="Rectangle 3" fill-rule="evenodd" clip-rule="evenodd" d="M10.9335 4.87646L12.3625 8.22211L10.9399 8.88014L9.50458 5.3468L10.9335 4.87646Z" fill="white"/>
<path id="Oval 5" fill-rule="evenodd" clip-rule="evenodd" d="M5.61139 8.61192C8.46665 7.16783 10.5915 5.55576 10.3574 5.01126C10.1233 4.46676 7.61891 5.19602 4.76365 6.6401C1.9084 8.08419 -0.21647 9.69625 0.0176276 10.2408C0.251725 10.7853 2.75614 10.056 5.61139 8.61192Z" fill="white"/>
<path id="Oval 5_2" fill-rule="evenodd" clip-rule="evenodd" d="M15.2553 3.7811C18.1105 2.33702 20.2354 0.724954 20.0013 0.180453C19.7672 -0.364048 17.2628 0.365209 14.4075 1.80929C11.5523 3.25338 9.42739 4.86544 9.66149 5.40995C9.89558 5.95445 12.4 5.22519 15.2553 3.7811Z" fill="white"/>
<path id="Rectangle 7" d="M22.1592 13.3397C21.0139 13.4401 19.5498 13.6837 18.2449 14.0479L24.4451 8.12751C24.8576 7.73364 25.5155 7.36571 26.2704 7.12385C27.0254 6.88197 27.7743 6.79928 28.3381 6.88017L35.0377 7.84129C36.3797 8.03382 36.7169 8.50471 36.7714 8.69064C36.8259 8.87695 36.796 9.45613 35.7699 10.3442L30.2128 15.154C30.1497 15.1255 30.0823 15.0955 30.0108 15.064C29.5086 14.8432 28.8009 14.5526 27.9755 14.2717C26.3535 13.7196 24.1609 13.1643 22.1592 13.3397Z" stroke="white" stroke-width="2"/>
<path id="Path 26" d="M16.9722 20.569C16.9722 20.569 18.0064 19.1988 19.5401 19.1333C21.0739 19.0678 22.0936 20.1301 22.0936 20.1301" stroke="white" stroke-width="1.8" stroke-linecap="round" stroke-linejoin="round"/>
<path id="Path 26_2" d="M26.7947 20.2538C26.7947 20.2538 27.7494 19.1137 29.19 19.353C29.5774 19.4173 30.167 19.9907 30.4554 20.1357" stroke="white" stroke-width="1.8" stroke-linecap="round" stroke-linejoin="round"/>
<path id="Oval 11" fill-rule="evenodd" clip-rule="evenodd" d="M26.4345 24.2193C26.1848 25.3476 25.4716 26.1529 24.622 26.1444C23.7965 26.1361 23.0832 25.3619 22.792 24.2783C22.7741 24.2117 22.7553 24.1239 22.7376 24.0331C22.6921 23.7998 22.8809 23.5908 23.1184 23.5989C23.2213 23.6024 23.322 23.6053 23.3969 23.606C24.0546 23.6126 25.8248 23.5967 25.8248 23.5967L26.1073 23.5989C26.3292 23.6006 26.5026 23.7931 26.4704 24.0128C26.4591 24.0898 26.4468 24.1636 26.4345 24.2193Z" fill="white"/>
</g>
</svg>
